<svg width="100" height="100" viewBox="0 0 100 100" fill="none" xmlns="http://www.w3.org/2000/svg">
  <defs>
    <linearGradient id="favSGrad" x1="0%" y1="0%" x2="100%" y2="100%">
      <stop offset="0%" stopColor="#3de2df" />
      <stop offset="50%" stopColor="#0ea5e9" />
      <stop offset="100%" stopColor="#2563eb" />
    </linearGradient>
    <linearGradient id="favInnerGrad" x1="0%" y1="0%" x2="100%" y2="100%">
      <stop offset="0%" stopColor="#ffffff" stopOpacity="0.9" />
      <stop offset="100%" stopColor="#2dd4bf" stopOpacity="0.1" />
    </linearGradient>
  </defs>
  
  <!-- The solid white '1' element standing inside the center hollow -->
  <path
    d="M 40.5 74 L 40.5 32 C 37 31 36.5 29.5 36.5 28.5 Q 36.5 23 42 20 L 57.5 20 Q 59.5 20 59.5 22 L 59.5 74 A 9.5 9.5 0 0 1 40.5 74 Z"
    fill="#ffffff"
    opacity="1"
  />

  <!-- Background S ribbon path -->
  <path
    d="M 50 12 
       C 72 12, 85 24, 78 40 
       C 72 52, 54 58, 40 68 
       C 24 81, 40 88, 54 88 
       C 68 88, 80 84, 80 84 
       L 80 92 
       C 80 92, 66 94, 52 94 
       C 32 94, 18 84, 25 68 
       C 32 54, 54 48, 64 38 
       C 72 28, 65 20, 50 20 
       C 34 20, 24 26, 24 26 
       L 24 16 
       C 24 16, 36 12, 50 12 Z"
    fill="url(#favSGrad)"
  />

  <!-- Outer overlay for ribbon dimension -->
  <path
    d="M 24 26 C 24 26, 36 18, 50 18 C 65 18, 72 26, 64 36 C 56 46, 34 52, 26 66 C 21 76, 28 88, 48 91"
    stroke="url(#favInnerGrad)"
    strokeWidth="3.5"
    strokeLinecap="round"
    fill="none"
  />
</svg>
